<svg id="Capa_1" enable-background="new 0 0 497 497" height="512" viewBox="0 0 497 497" width="512" xmlns="http://www.w3.org/2000/svg"><g><path d="m477 354.5h-24l-17.5-8.702-17.234 8.702h-334.266c-11.046 0-20-8.954-20-20v-174.745l6.862-24.681-6.862-12.574v-24c0-11.046 8.954-20 20-20h393c11.046 0 20 8.954 20 20v74.5l-20.691 33.053 20.691 36.947v91.5c0 11.046-8.954 20-20 20z" fill="#6b6b6b"/><path d="m453 162.5v192h-369c-11.05 0-20-8.95-20-20v-212h349c22.06 0 40 17.94 40 40z" fill="#5e5d5d"/><path d="m388.39 173h108.61v70h-108.61z" fill="#ffd766"/><path d="m388.39 173h64.61v70h-64.61z" fill="#ffc571"/><path d="m409.755 414.734-383.319-2.197c-11.046 0-20-8.954-20-20l.511-223.165c0-10.37 11.053-26.773 11.053-26.773.658-.065 1.325-.099 2-.099h393c11.046 0 20 8.954 20 20v236c0 .675-.033 1.342-.099 2 0 0-12.775 14.234-23.146 14.234z" fill="#ffe564"/><path d="m432.9 400.5c-1 10.11-9.53 18-19.9 18h-393c-11.05 0-20-8.95-20-20v-236c0-10.37 7.89-18.9 18-19.9v247.9c0 5.52 4.48 10 10 10z" fill="#ffd766"/><path d="m120 298.5h-80c-5.523 0-10-4.477-10-10v-30c0-5.523 4.477-10 10-10h80c5.523 0 10 4.477 10 10v30c0 5.523-4.477 10-10 10z" fill="#f9f7f8"/><circle cx="50" cy="198" fill="#f9f7f8" r="20"/><g><g><path d="m139 190.5h-39c-4.143 0-7.5-3.357-7.5-7.5s3.357-7.5 7.5-7.5h39c4.143 0 7.5 3.357 7.5 7.5s-3.357 7.5-7.5 7.5z" fill="#ffd766"/></g><g><path d="m168 220.5h-68c-4.143 0-7.5-3.357-7.5-7.5s3.357-7.5 7.5-7.5h68c4.143 0 7.5 3.357 7.5 7.5s-3.357 7.5-7.5 7.5z" fill="#ffd766"/></g></g><g><path d="m213 361h-45c-4.143 0-7.5-3.357-7.5-7.5s3.357-7.5 7.5-7.5h45c4.143 0 7.5 3.357 7.5 7.5s-3.357 7.5-7.5 7.5z" fill="#ffd766"/></g><g><g><path d="m403 336h-363c-4.143 0-7.5-3.357-7.5-7.5s3.357-7.5 7.5-7.5h363c4.143 0 7.5 3.357 7.5 7.5s-3.357 7.5-7.5 7.5z" fill="#ffd766"/></g><g><path d="m213 386h-173c-4.143 0-7.5-3.357-7.5-7.5s3.357-7.5 7.5-7.5h173c4.143 0 7.5 3.357 7.5 7.5s-3.357 7.5-7.5 7.5z" fill="#ffd766"/></g></g><path d="m306 386h94c1.657 0 3-1.343 3-3v-24c0-1.657-1.343-3-3-3h-94c-1.657 0-3 1.343-3 3v24c0 1.657 1.343 3 3 3z" fill="#ffd766"/><circle cx="343" cy="232" fill="#99e6fc" r="60"/><path d="m343 164.5c-37.22 0-67.5 30.28-67.5 67.5s30.28 67.5 67.5 67.5 67.5-30.28 67.5-67.5-30.28-67.5-67.5-67.5zm0 119.966c-2.432-.993-7.323-9.484-10.213-25.255 3.403.189 6.821.289 10.213.289s6.81-.099 10.213-.289c-2.89 15.771-7.781 24.262-10.213 25.255zm0-39.966c-4.289 0-8.314-.15-12.084-.416-.265-3.77-.416-7.795-.416-12.084s.15-8.314.416-12.084c3.77-.265 7.795-.416 12.084-.416s8.314.15 12.084.416c.265 3.77.416 7.795.416 12.084s-.15 8.314-.416 12.084c-3.77.266-7.795.416-12.084.416zm-52.466-12.5c.993-2.432 9.484-7.323 25.255-10.213-.189 3.403-.289 6.821-.289 10.213s.099 6.81.289 10.213c-15.771-2.89-24.262-7.781-25.255-10.213zm52.466-52.466c2.432.993 7.323 9.484 10.213 25.255-3.403-.189-6.821-.289-10.213-.289s-6.81.099-10.213.289c2.89-15.771 7.781-24.262 10.213-25.255zm27.211 42.253c15.771 2.89 24.262 7.781 25.255 10.213-.993 2.432-9.484 7.323-25.255 10.213.189-3.403.289-6.821.289-10.213s-.099-6.81-.289-10.213zm21.385-9.624c-6.609-2.624-14.504-4.549-22.945-5.814-1.265-8.441-3.19-16.337-5.814-22.945 13.016 5.333 23.426 15.743 28.759 28.759zm-68.433-28.759c-2.624 6.609-4.549 14.504-5.814 22.945-8.441 1.265-16.337 3.19-22.945 5.814 5.333-13.016 15.743-23.426 28.759-28.759zm-28.759 68.433c6.609 2.624 14.504 4.549 22.945 5.814 1.265 8.441 3.19 16.337 5.814 22.945-13.016-5.333-23.426-15.743-28.759-28.759zm68.433 28.759c2.624-6.609 4.549-14.504 5.814-22.945 8.441-1.265 16.337-3.19 22.945-5.814-5.333 13.016-15.743 23.426-28.759 28.759z" fill="#f9f7f8"/></g></svg>