<svg id="Capa_1" enable-background="new 0 0 512 512" height="512" viewBox="0 0 512 512" width="512" xmlns="http://www.w3.org/2000/svg" xmlns:xlink="http://www.w3.org/1999/xlink"><linearGradient id="SVGID_1_" gradientUnits="userSpaceOnUse" x1="233" x2="233" y1="451.037" y2="15.963"><stop offset="0" stop-color="#ffe59a"/><stop offset="1" stop-color="#ffffd5"/></linearGradient><linearGradient id="SVGID_2_" gradientUnits="userSpaceOnUse" x1="258.618" x2="258.618" y1="496.037" y2="64.337"><stop offset="0" stop-color="#fd5900"/><stop offset="1" stop-color="#ffde00"/></linearGradient><g><g><g><path d="m438.999 256.037c7.202 0 13.2-5.102 14.702-12.001 1.5-6.599 1.199-13.5-.601-19.799l-33.6-130.801-54.736-2.338 47.236-26.761-3.9-14.7c-6.693-25.424-32.85-38.395-54.6-32.1l-319.763 82.5c-24.222 6.209-38.816 31.409-32.1 54.6l3.6 14.399 58.043 1.432-50.543 27.669 33.864 131.1c5.4 20.1 23.699 33.6 43.499 33.6 9.271 0 13.737-2.103 19.501-3.299 6.601-1.8 11.4-7.8 11.4-14.702v-73.799c0-8.401 6.599-15 15-15zm-2.999 135h-180c16.553 0 30-13.462 30-30v-60c0-16.538-13.447-30-30-30h-90c-16.553 0-30 13.462-30 30v60c0 16.538 13.447 30 30 30-16.553 0-30 13.462-30 30s13.447 30 30 30h270c16.553 0 30-13.462 30-30s-13.447-30-30-30zm-30-120c-16.553 0-30 13.462-30 30s13.447 30 30 30h30c16.553 0 30-13.462 30-30s-13.447-30-30-30z" fill="url(#SVGID_1_)"/></g></g><g><g><path d="m412 64.337-406.764 104.699 7.5 29.101 406.764-104.701zm55 161.7h-331c-24.814 0-45 20.186-45 45v180c0 24.814 20.186 45 45 45h331c24.814 0 45-20.186 45-45v-180c0-24.814-20.186-45-45-45zm-316 75c0-8.291 6.709-15 15-15h90c8.291 0 15 6.709 15 15v60c0 8.291-6.709 15-15 15h-90c-8.291 0-15-6.709-15-15zm285 135h-270c-8.291 0-15-6.709-15-15s6.709-15 15-15h270c8.291 0 15 6.709 15 15s-6.709 15-15 15zm0-120h-30c-8.291 0-15-6.709-15-15s6.709-15 15-15h30c8.291 0 15 6.709 15 15s-6.709 15-15 15z" fill="url(#SVGID_2_)"/></g></g></g></svg>