<svg fill="none" height="512" viewBox="0 0 24 24" width="512" xmlns="http://www.w3.org/2000/svg"><g clip-rule="evenodd" fill="rgb(0,0,0)" fill-rule="evenodd"><path d="m.25 5.85714c0-1.42481 1.1349-2.60714 2.56818-2.60714h16.36362c1.4333 0 2.5682 1.18233 2.5682 2.60714v5.14286c0 .4142-.3358.75-.75.75s-.75-.3358-.75-.75v-5.14286c0-.62653-.4932-1.10714-1.0682-1.10714h-16.36362c-.57503 0-1.06818.48061-1.06818 1.10714v9.28576c0 .6265.49315 1.1071 1.06818 1.1071h7.18182c.4142 0 .75.3358.75.75s-.3358.75-.75.75h-7.18182c-1.43328 0-2.56818-1.1823-2.56818-2.6071z"/><path d="m.25 7c0-.41421.335786-.75.75-.75h20c.4142 0 .75.33579.75.75s-.3358.75-.75.75h-20c-.414214 0-.75-.33579-.75-.75z"/><path d="m2.25 12c0-.4142.33579-.75.75-.75h2c.41421 0 .75.3358.75.75s-.33579.75-.75.75h-2c-.41421 0-.75-.3358-.75-.75z"/><path d="m2.25 14.5c0-.4142.33579-.75.75-.75h4c.41421 0 .75.3358.75.75s-.33579.75-.75.75h-4c-.41421 0-.75-.3358-.75-.75z"/><path d="m12.25 18c0-3.1756 2.5744-5.75 5.75-5.75s5.75 2.5744 5.75 5.75-2.5744 5.75-5.75 5.75-5.75-2.5744-5.75-5.75zm8.2803.0303c.2929-.2929.2929-.7677 0-1.0606s-.7677-.2929-1.0606 0l-1.4697 1.4696-.9697-.9696c-.2929-.2929-.7677-.2929-1.0606 0s-.2929.7677 0 1.0606l1.5 1.5c.2929.2929.7677.2929 1.0606 0z"/></g></svg>